<svg xmlns="http://www.w3.org/2000/svg" viewBox="0 0 1200 900">
  <defs>
    <linearGradient id="bg" x1="0" y1="0" x2="1" y2="1">
      <stop offset="0%" stop-color="#24160f"/>
      <stop offset="100%" stop-color="#8e4d28"/>
    </linearGradient>
  </defs>
  <rect width="1200" height="900" fill="url(#bg)"/>
  <circle cx="980" cy="180" r="160" fill="#ffbb72" opacity=".16"/>
  <circle cx="200" cy="180" r="140" fill="#ffd4a4" opacity=".09"/>
  <rect x="290" y="500" width="620" height="140" rx="42" fill="#2f241e"/>
  <rect x="325" y="530" width="550" height="80" rx="28" fill="#564136"/>
  <g stroke="#cfc0ae" stroke-width="12" stroke-linecap="round">
    <line x1="390" y1="450" x2="880" y2="450"/>
    <line x1="360" y1="500" x2="850" y2="500"/>
    <line x1="420" y1="400" x2="910" y2="400"/>
  </g>
  <g>
    <rect x="400" y="350" width="90" height="60" rx="20" fill="#c56c3f"/>
    <rect x="520" y="410" width="95" height="58" rx="20" fill="#d78451"/>
    <rect x="640" y="340" width="98" height="66" rx="20" fill="#a94d2b"/>
    <rect x="760" y="405" width="92" height="62" rx="20" fill="#cf7b39"/>
    <circle cx="432" cy="332" r="20" fill="#7ba248"/>
    <circle cx="560" cy="390" r="18" fill="#82a93f"/>
    <circle cx="676" cy="319" r="22" fill="#7ca34c"/>
    <circle cx="796" cy="388" r="18" fill="#88ae49"/>
  </g>
</svg>
