<svg xmlns="http://www.w3.org/2000/svg" viewBox="0 0 1200 900">
  <defs>
    <linearGradient id="bg" x1="0" y1="0" x2="1" y2="1">
      <stop offset="0%" stop-color="#2a1f1c"/>
      <stop offset="100%" stop-color="#8a5b36"/>
    </linearGradient>
  </defs>
  <rect width="1200" height="900" fill="url(#bg)"/>
  <ellipse cx="600" cy="620" rx="280" ry="185" fill="#35221c"/>
  <ellipse cx="600" cy="590" rx="245" ry="150" fill="#f5f0e2"/>
  <g fill="none" stroke="#f0c66c" stroke-width="14" stroke-linecap="round">
    <path d="M420 560c48-24 80-18 120 14s78 40 124 8 80-38 120-10"/>
    <path d="M450 600c42-18 74-15 112 12s78 34 118 8 74-31 106-9"/>
    <path d="M438 640c44-20 74-17 116 14s78 36 120 10 76-32 112-10"/>
    <path d="M470 520c38-16 70-12 108 15s72 32 108 8 66-30 100-12"/>
  </g>
  <circle cx="490" cy="520" r="30" fill="#8dc04c"/>
  <circle cx="728" cy="565" r="28" fill="#7fb04b"/>
  <circle cx="595" cy="505" r="26" fill="#f3dfae"/>
  <path d="M390 360l120 180" stroke="#c59a63" stroke-width="18" stroke-linecap="round"/>
  <path d="M810 360l-120 180" stroke="#c59a63" stroke-width="18" stroke-linecap="round"/>
</svg>
