<svg xmlns="http://www.w3.org/2000/svg" viewBox="0 0 1200 900">
  <defs>
    <linearGradient id="bg" x1="0" y1="0" x2="1" y2="1">
      <stop offset="0%" stop-color="#241617"/>
      <stop offset="100%" stop-color="#7b3f35"/>
    </linearGradient>
  </defs>
  <rect width="1200" height="900" fill="url(#bg)"/>
  <ellipse cx="600" cy="635" rx="300" ry="170" fill="#f0e8de"/>
  <path d="M430 475c52-62 185-86 278-23 92 62 94 204-24 248-128 47-324-55-254-225z" fill="#9d3f2c"/>
  <path d="M480 505c50-46 140-61 205-14 58 41 57 124-18 157-88 39-223-34-187-143z" fill="#c35f45"/>
  <circle cx="642" cy="560" r="34" fill="#f1d4aa"/>
  <rect x="750" y="460" width="26" height="210" rx="13" fill="#d4cec4"/>
  <path d="M760 654c78 18 118-28 122-90-44-7-92 14-122 42" fill="#89a64a"/>
</svg>
