<svg width="128" height="64" viewBox="0 0 128 64" fill="none" xmlns="http://www.w3.org/2000/svg">
  <rect width="128" height="64" rx="16" fill="#F6821F"/>
  <path d="M41 39.5C41.9 34.9 45.9 31.5 50.7 31.5H80.2C82 26.8 86.5 23.5 91.7 23.5C98.5 23.5 104 29 104 35.8C104 37.1 103.8 38.3 103.4 39.5H41Z" fill="#FFF3E8"/>
  <path d="M33 43C33 39.4 35.9 36.5 39.5 36.5H80.5C83.5 36.5 86 38.9 86 42C86 45.1 83.5 47.5 80.5 47.5H39.5C35.9 47.5 33 46.6 33 43Z" fill="#FFD7B0"/>
  <path d="M70.5 47.5C72 44.2 75.3 42 79 42H101.5C103.4 42 105 43.6 105 45.5C105 47.4 103.4 49 101.5 49H70.5V47.5Z" fill="#FFE7CF"/>
  <circle cx="36" cy="20" r="4" fill="#FFF3E8" fill-opacity="0.7"/>
</svg>
